<svg xmlns="http://www.w3.org/2000/svg"><defs><symbol id="icon-caret-arrowhead-facing-down" viewBox="0 0 50 50"><path d="M4 17l21 22 21-22z"/></symbol><symbol id="icon-checkmark" viewBox="0 0 24 24"><path d="M19.28 5.28L9 15.563l-4.28-4.28-1.44 1.437 5 5 .72.686.72-.687 11-11z"/></symbol><symbol id="icon-delete-sign" viewBox="0 0 24 24"><path d="M5.625 4.22L4.22 5.624 10.593 12 4.22 18.375l1.405 1.406L12 13.407l6.375 6.375 1.406-1.405L13.407 12l6.375-6.375-1.405-1.406L12 10.593z"/></symbol><symbol id="icon-microsoft-excel" viewBox="0 0 32 32"><path d="M15.875 4l-.094.03-11 2.44-.78.186v18.688l.78.187 11 2.44.095.03H18v-3h10V7H18V4zM16 6.03v19.94L6 23.78V8.22zM18 9h8v14h-8v-2h2v-2h-2v-1h2v-2h-2v-1h2v-2h-2v-1h2v-2h-2zm3 1v2h4v-2zm-6.844 1l-2.28.28-1.25 2.69c-.134.385-.23.678-.282.874h-.03c-.08-.324-.154-.606-.252-.844l-.624-2.313-2.126.25L7.22 12 9 16l-2 4 2.156.25.875-2.47c.107-.31.193-.565.22-.718h.03c.06.325.1.567.158.688l1.343 2.938 2.44.312-2.658-5.03zM21 13v2h4v-2zm0 3v2h4v-2zm0 3v2h4v-2z"/></symbol></defs></svg>